<svg xmlns="http://www.w3.org/2000/svg" xmlns:xlink="http://www.w3.org/1999/xlink" width="500" zoomAndPan="magnify" viewBox="0 0 375 374.999991" height="500" preserveAspectRatio="xMidYMid meet" version="1.0"><defs><g/></defs><rect x="-37.5" width="450" fill="#ffffff" y="-37.499999" height="449.999989" fill-opacity="1"/><rect x="-37.5" width="450" fill="#000000" y="-37.499999" height="449.999989" fill-opacity="1"/><g fill="#ffffff" fill-opacity="1"><g transform="translate(84.693402, 209.665456)"><g><path d="M 2.425781 -5.34375 C 3.097656 -3.953125 4.132812 -2.785156 5.34375 -1.839844 C 6.871094 -0.671875 8.757812 0.0429688 10.824219 0.222656 L 10.824219 0.269531 L 18.910156 0.269531 C 24.03125 0.269531 28.117188 -3.277344 28.117188 -8.804688 L 13.746094 -8.804688 C 12.308594 -8.804688 11.453125 -9.792969 11.230469 -11.140625 L 11.230469 -27.039062 C 11.183594 -27.175781 11.183594 -27.308594 11.183594 -27.488281 L 11.183594 -30.40625 C 11.183594 -30.542969 11.183594 -30.675781 11.230469 -30.8125 C 11.410156 -32.113281 12.578125 -33.101562 13.835938 -33.238281 L 20.03125 -33.238281 L 20.03125 -32.160156 C 24.839844 -32.160156 27.894531 -35.527344 27.894531 -39.929688 L 27.894531 -42.3125 L 9.703125 -42.3125 C 4.941406 -42.042969 1.707031 -38.582031 1.707031 -33.238281 C 1.707031 -33.191406 1.707031 -33.148438 1.707031 -33.148438 L 1.707031 -8.9375 C 1.707031 -7.679688 1.976562 -6.46875 2.425781 -5.34375 Z M 2.425781 -5.34375 "/></g></g></g><g fill="#ffffff" fill-opacity="1"><g transform="translate(115.728163, 209.665456)"><g><path d="M 24.613281 -36.695312 C 24.03125 -38.988281 22.816406 -40.558594 20.839844 -41.683594 C 19.761719 -42.3125 18.59375 -42.625 17.335938 -42.625 C 16.078125 -42.625 14.914062 -42.3125 13.878906 -41.683594 C 11.902344 -40.558594 10.644531 -38.988281 10.105469 -36.695312 L 0.3125 -0.269531 C 5.390625 0.941406 10.375 -1.796875 11.542969 -6.421875 L 12.039062 -8.445312 L 12.21875 -9.476562 L 22.457031 -9.476562 L 22.683594 -8.445312 L 23.175781 -6.421875 C 24.300781 -1.796875 29.332031 0.941406 34.359375 -0.269531 Z M 20.886719 -17.023438 L 13.789062 -17.023438 L 17.335938 -30.675781 Z M 20.886719 -17.023438 "/></g></g></g><g fill="#ffffff" fill-opacity="1"><g transform="translate(150.625428, 209.665456)"><g><path d="M 25.648438 -14.105469 C 26.769531 -14.6875 27.757812 -15.359375 28.613281 -16.167969 C 30.050781 -17.472656 31.125 -19.089844 31.933594 -21.019531 C 32.742188 -22.953125 33.101562 -25.199219 33.101562 -27.714844 L 33.101562 -27.847656 C 33.101562 -30.230469 32.742188 -32.339844 32.023438 -34.226562 C 31.304688 -36.113281 30.273438 -37.683594 28.925781 -38.988281 C 27.625 -40.289062 25.960938 -41.234375 24.074219 -41.90625 C 22.1875 -42.582031 20.03125 -42.941406 17.742188 -42.941406 L 11.542969 -42.941406 C 6.917969 -42.941406 1.839844 -38.582031 1.839844 -33.191406 L 1.839844 0 C 7.5 0 12.128906 -5.300781 12.128906 -11.902344 L 12.128906 -12.261719 L 16.347656 -12.261719 L 21.917969 -3.953125 C 24.75 0.269531 29.824219 1.257812 34.046875 -1.570312 Z M 12.128906 -33.011719 L 16.933594 -33.011719 C 18.820312 -33.011719 20.257812 -32.519531 21.289062 -31.53125 C 22.324219 -30.585938 22.863281 -29.152344 22.863281 -27.308594 L 22.863281 -27.175781 C 22.863281 -25.46875 22.324219 -24.121094 21.289062 -23.085938 C 20.257812 -22.097656 18.820312 -21.558594 16.976562 -21.558594 L 12.128906 -21.558594 Z M 12.128906 -33.011719 "/></g></g></g><g fill="#ffffff" fill-opacity="1"><g transform="translate(186.196397, 209.665456)"><g><path d="M 23.984375 -32.921875 L 23.984375 -25.152344 L 12.351562 -25.152344 L 12.351562 -42.175781 C 6.78125 -42.175781 2.289062 -38.042969 2.289062 -32.921875 L 2.289062 -25.152344 L 2.246094 -25.152344 C 2.246094 -24.792969 2.246094 -24.433594 2.289062 -24.121094 L 2.289062 0.628906 C 7.859375 0.628906 12.351562 -3.503906 12.351562 -8.578125 L 12.351562 -16.347656 L 23.984375 -16.347656 L 23.984375 0.628906 C 29.554688 0.628906 34.046875 -3.503906 34.046875 -8.578125 L 34.046875 -42.175781 C 28.523438 -42.175781 23.984375 -38.042969 23.984375 -32.921875 Z M 23.984375 -32.921875 "/></g></g></g><g fill="#ffffff" fill-opacity="1"><g transform="translate(222.575788, 209.665456)"><g><path d="M 27.667969 -40.785156 C 24.480469 -39.257812 22.277344 -36.203125 22.277344 -32.652344 L 22.277344 -9.972656 C 22.277344 -8.667969 21.246094 -7.546875 19.898438 -7.5 C 19.898438 -7.5 19.898438 -7.5 19.851562 -7.5 L 14.734375 -7.5 C 14.015625 -7.5 13.429688 -7.726562 13.027344 -8.128906 C 12.53125 -8.578125 12.261719 -9.207031 12.261719 -9.882812 L 12.261719 -32.652344 C 12.261719 -36.113281 10.152344 -39.167969 7.050781 -40.695312 C 5.613281 -41.414062 3.996094 -41.863281 2.246094 -41.863281 L 2.246094 -8.355469 C 2.246094 -5.972656 3.234375 -3.773438 4.894531 -2.15625 C 5.074219 -1.976562 5.253906 -1.796875 5.480469 -1.617188 C 7.140625 0.0429688 9.523438 0.851562 12.128906 1.078125 C 13.609375 1.210938 15.269531 1.300781 16.976562 1.300781 C 17.382812 1.300781 17.875 1.300781 18.460938 1.300781 C 20.617188 1.300781 21.246094 1.210938 22.457031 1.078125 C 24.121094 0.941406 25.648438 0.492188 26.949219 -0.222656 C 30.140625 -1.796875 32.292969 -4.851562 32.292969 -8.355469 L 32.292969 -41.863281 C 30.632812 -41.863281 29.0625 -41.457031 27.667969 -40.785156 Z M 27.667969 -40.785156 "/></g></g></g><g fill="#ffffff" fill-opacity="1"><g transform="translate(257.158672, 209.665456)"><g><path d="M 27.355469 -23.265625 C 28.523438 -25.289062 29.421875 -25.152344 29.421875 -31.261719 C 29.421875 -37.324219 23.402344 -42.3125 17.875 -42.3125 L 11.183594 -42.3125 C 11.09375 -42.3125 10.960938 -42.3125 10.871094 -42.265625 C 5.570312 -42.085938 2.246094 -38.042969 2.246094 -33.101562 L 2.246094 0.3125 C 4.402344 0.3125 6.242188 -0.269531 7.679688 -1.300781 C 8.757812 -0.539062 10.152344 0 12.128906 0 L 20.75 0 C 27.21875 0 30.855469 -6.511719 30.855469 -11.589844 L 30.855469 -15.40625 C 30.855469 -18.503906 29.78125 -21.289062 27.355469 -23.265625 Z M 17.605469 -34.136719 C 19.222656 -34.136719 20.75 -32.832031 20.75 -31.214844 L 20.75 -28.253906 C 20.75 -26.636719 19.449219 -25.378906 17.875 -25.378906 L 11.273438 -25.378906 L 11.273438 -34.136719 Z M 22.234375 -11.859375 C 22.234375 -9.882812 20.527344 -8.398438 18.683594 -8.308594 L 11.273438 -8.308594 C 11.273438 -8.398438 11.273438 -8.535156 11.273438 -8.625 L 11.273438 -17.695312 L 18.683594 -17.695312 C 20.527344 -17.785156 22.234375 -16.078125 22.234375 -14.148438 Z M 22.234375 -11.859375 "/></g></g></g></svg>